NotoSansMono-CondensedBold.ufo
<glyph name="oslash" format="2">
  <advance width="500"/>
  <unicode hex="00F8"/>
  <anchor x="250" y="0" name="bottom"/>
  <anchor x="250" y="553" name="top"/>
  <anchor x="250" y="277" name="center"/>
  <anchor x="253" y="10" name="ogonek"/>
  <anchor x="499" y="553" name="topright"/>
  <outline>
    <contour>
      <point x="129" y="-59" type="line"/>
      <point x="439" y="562" type="line"/>
      <point x="368" y="595" type="line"/>
      <point x="58" y="-26" type="line"/>
    </contour>
    <component base="o"/>
  </outline>
</glyph>
<glyph name="Lslash" format="2">
  <advance width="500"/>
  <unicode hex="0141"/>
  <anchor x="307" y="0" name="bottom"/>
  <anchor x="164" y="714" name="top"/>
  <anchor x="280" y="357" name="center"/>
  <anchor x="407" y="714" name="topright"/>
  <outline>
    <contour>
      <point x="56" y="205" type="line"/>
      <point x="389" y="464" type="line"/>
      <point x="318" y="554" type="line"/>
      <point x="-13" y="304" type="line"/>
    </contour>
    <component base="L" xOffset="30"/>
  </outline>
</glyph>
<glyph name="lslash" format="2">
  <advance width="500"/>
  <unicode hex="0142"/>
  <anchor x="250" y="0" name="bottom"/>
  <anchor x="250" y="760" name="top"/>
  <anchor x="256" y="393" name="center"/>
  <anchor x="423" y="760" name="topright"/>
  <outline>
    <contour>
      <point x="135" y="211" type="line"/>
      <point x="450" y="452" type="line"/>
      <point x="379" y="541" type="line"/>
      <point x="64" y="302" type="line"/>
    </contour>
    <component base="l"/>
  </outline>
</glyph>
<glyph name="uni0180" format="2">
  <advance width="500"/>
  <unicode hex="0180"/>
  <anchor x="250" y="0" name="bottom"/>
  <anchor x="264" y="760" name="top"/>
  <anchor x="480" y="760" name="topright"/>
  <outline>
    <contour>
      <point x="-7" y="584" type="line"/>
      <point x="301" y="584" type="line"/>
      <point x="301" y="698" type="line"/>
      <point x="-7" y="698" type="line"/>
    </contour>
    <component base="b"/>
  </outline>
</glyph>
<glyph name="uni018C" format="2">
  <advance width="500"/>
  <unicode hex="018C"/>
  <anchor x="250" y="0" name="bottom"/>
  <anchor x="266" y="760" name="top"/>
  <anchor x="250" y="277" name="center"/>
  <anchor x="500" y="760" name="topright"/>
  <outline>
    <contour>
      <point x="80" y="630" type="line"/>
      <point x="372" y="630" type="line"/>
      <point x="372" y="760" type="line"/>
      <point x="80" y="760" type="line"/>
    </contour>
    <component base="d"/>
  </outline>
</glyph>
<glyph name="uni0191" format="2">
  <advance width="500"/>
  <unicode hex="0191"/>
  <anchor x="158" y="0" name="bottom"/>
  <anchor x="340" y="714" name="top"/>
  <anchor x="501" y="714" name="topright"/>
  <outline>
    <contour>
      <point x="153" y="-16" type="curve" smooth="yes"/>
      <point x="268" y="-16"/>
      <point x="334" y="56"/>
      <point x="334" y="182" type="curve" smooth="yes"/>
      <point x="334" y="298" type="line"/>
      <point x="467" y="298" type="line"/>
      <point x="467" y="438" type="line"/>
      <point x="334" y="438" type="line"/>
      <point x="334" y="574" type="line"/>
      <point x="484" y="574" type="line"/>
      <point x="484" y="714" type="line"/>
      <point x="179" y="714" type="line"/>
      <point x="179" y="182" type="line" smooth="yes"/>
      <point x="179" y="152"/>
      <point x="169" y="130"/>
      <point x="145" y="130" type="curve" smooth="yes"/>
      <point x="128" y="130"/>
      <point x="119" y="143"/>
      <point x="119" y="157" type="curve" smooth="yes"/>
      <point x="119" y="165"/>
      <point x="121" y="174"/>
      <point x="125" y="182" type="curve"/>
      <point x="-5" y="218" type="line"/>
      <point x="-17" y="197"/>
      <point x="-25" y="170"/>
      <point x="-25" y="141" type="curve" smooth="yes"/>
      <point x="-25" y="50"/>
      <point x="29" y="-16"/>
    </contour>
  </outline>
</glyph>
<glyph name="florin" format="2">
  <advance width="500"/>
  <unicode hex="0192"/>
  <anchor x="152" y="0" name="bottom"/>
  <anchor x="338" y="766" name="top"/>
  <anchor x="500" y="766" name="topright"/>
  <outline>
    <contour>
      <point x="152" y="-15" type="curve" smooth="yes"/>
      <point x="264" y="-15"/>
      <point x="333" y="47"/>
      <point x="333" y="162" type="curve" smooth="yes"/>
      <point x="333" y="419" type="line"/>
      <point x="465" y="419" type="line"/>
      <point x="465" y="553" type="line"/>
      <point x="333" y="553" type="line"/>
      <point x="333" y="568" type="line" smooth="yes"/>
      <point x="333" y="610"/>
      <point x="353" y="628"/>
      <point x="390" y="628" type="curve" smooth="yes"/>
      <point x="410" y="628"/>
      <point x="430" y="624"/>
      <point x="457" y="612" type="curve"/>
      <point x="500" y="738" type="line"/>
      <point x="452" y="759"/>
      <point x="402" y="766"/>
      <point x="358" y="766" type="curve" smooth="yes"/>
      <point x="234" y="766"/>
      <point x="178" y="704"/>
      <point x="178" y="582" type="curve" smooth="yes"/>
      <point x="178" y="552" type="line"/>
      <point x="70" y="504" type="line"/>
      <point x="70" y="419" type="line"/>
      <point x="178" y="419" type="line"/>
      <point x="178" y="159" type="line" smooth="yes"/>
      <point x="178" y="126"/>
      <point x="167" y="110"/>
      <point x="146" y="110" type="curve" smooth="yes"/>
      <point x="129" y="110"/>
      <point x="118" y="122"/>
      <point x="118" y="139" type="curve" smooth="yes"/>
      <point x="118" y="149"/>
      <point x="119" y="154"/>
      <point x="121" y="160" type="curve"/>
      <point x="-4" y="190" type="line"/>
      <point x="-11" y="177"/>
      <point x="-16" y="154"/>
      <point x="-16" y="133" type="curve" smooth="yes"/>
      <point x="-16" y="29"/>
      <point x="56" y="-15"/>
    </contour>
  </outline>
</glyph>
<glyph name="uni0197" format="2">
  <advance width="500"/>
  <unicode hex="0197"/>
  <anchor x="253" y="0" name="bottom"/>
  <anchor x="253" y="714" name="top"/>
  <anchor x="344" y="10" name="ogonek"/>
  <anchor x="20" y="714" name="topleft"/>
  <anchor x="480" y="714" name="topright"/>
  <outline>
    <contour>
      <point x="74" y="304" type="line"/>
      <point x="426" y="304" type="line"/>
      <point x="426" y="438" type="line"/>
      <point x="74" y="438" type="line"/>
    </contour>
    <component base="I"/>
  </outline>
</glyph>
<glyph name="uni019A" format="2">
  <advance width="500"/>
  <unicode hex="019A"/>
  <anchor x="250" y="0" name="bottom"/>
  <anchor x="250" y="760" name="top"/>
  <anchor x="256" y="393" name="center"/>
  <anchor x="423" y="760" name="topright"/>
  <outline>
    <contour>
      <point x="70" y="320" type="line"/>
      <point x="433" y="320" type="line"/>
      <point x="433" y="435" type="line"/>
      <point x="70" y="435" type="line"/>
    </contour>
    <component base="l"/>
  </outline>
</glyph>
<glyph name="uni019B" format="2">
  <advance width="500"/>
  <unicode hex="019B"/>
  <anchor x="260" y="0" name="bottom"/>
  <anchor x="266" y="766" name="top"/>
  <outline>
    <contour>
      <point x="97" y="494" type="line"/>
      <point x="380" y="603" type="line"/>
      <point x="342" y="700" type="line"/>
      <point x="59" y="592" type="line"/>
    </contour>
    <component base="lambda"/>
  </outline>
</glyph>
<glyph name="uni0247" format="2">
  <advance width="500"/>
  <unicode hex="0247"/>
  <anchor x="250" y="-208" name="bottom"/>
  <anchor x="250" y="760" name="top"/>
  <anchor x="262" y="10" name="ogonek"/>
  <anchor x="497" y="553" name="topright"/>
  <outline>
    <contour>
      <point x="65" y="-208" type="line"/>
      <point x="152" y="-208" type="line"/>
      <point x="404" y="760" type="line"/>
      <point x="317" y="760" type="line"/>
    </contour>
    <component base="e"/>
  </outline>
</glyph>
<glyph name="uni025F" format="2">
  <advance width="500"/>
  <unicode hex="025F"/>
  <anchor x="252" y="-239" name="bottom"/>
  <anchor x="270" y="553" name="top"/>
  <anchor x="420" y="556" name="topright"/>
  <outline>
    <contour>
      <point x="182" y="-240" type="curve" smooth="yes"/>
      <point x="286" y="-238"/>
      <point x="349" y="-179"/>
      <point x="349" y="-45" type="curve" smooth="yes"/>
      <point x="349" y="237" type="line"/>
      <point x="401" y="237" type="line"/>
      <point x="401" y="353" type="line"/>
      <point x="349" y="353" type="line"/>
      <point x="349" y="553" type="line"/>
      <point x="187" y="553" type="line"/>
      <point x="187" y="353" type="line"/>
      <point x="136" y="353" type="line"/>
      <point x="136" y="237" type="line"/>
      <point x="187" y="237" type="line"/>
      <point x="187" y="-32" type="line" smooth="yes"/>
      <point x="187" y="-77"/>
      <point x="173" y="-100"/>
      <point x="143" y="-100" type="curve" smooth="yes"/>
      <point x="129" y="-100"/>
      <point x="114" y="-97"/>
      <point x="98" y="-91" type="curve"/>
      <point x="98" y="-228" type="line"/>
      <point x="125" y="-237"/>
      <point x="155" y="-240"/>
    </contour>
  </outline>
</glyph>
<glyph name="uni0284" format="2">
  <advance width="500"/>
  <unicode hex="0284"/>
  <anchor x="201" y="-240" name="bottom"/>
  <anchor x="307" y="765" name="top"/>
  <outline>
    <contour>
      <point x="25" y="237" type="line"/>
      <point x="477" y="237" type="line"/>
      <point x="477" y="353" type="line"/>
      <point x="25" y="353" type="line"/>
    </contour>
    <component base="uni0283"/>
  </outline>
</glyph>
<glyph name="uni02A1" format="2">
  <advance width="500"/>
  <unicode hex="02A1"/>
  <anchor x="214" y="0" name="bottom"/>
  <anchor x="250" y="765" name="top"/>
  <anchor x="460" y="760" name="topright"/>
  <outline>
    <contour>
      <point x="36" y="121" type="line"/>
      <point x="411" y="121" type="line"/>
      <point x="411" y="237" type="line"/>
      <point x="36" y="237" type="line"/>
    </contour>
    <component base="uni0294"/>
  </outline>
</glyph>
<glyph name="uni02FA" format="2">
  <advance width="500"/>
  <unicode hex="02FA"/>
  <outline>
    <contour>
      <point x="310" y="435" type="line"/>
      <point x="363" y="435" type="line"/>
      <point x="363" y="681" type="line"/>
      <point x="137" y="681" type="line"/>
      <point x="137" y="628" type="line"/>
      <point x="310" y="628" type="line"/>
    </contour>
  </outline>
</glyph>
<glyph name="Epsilontonos" format="2">
  <advance width="500"/>
  <unicode hex="0388"/>
  <anchor x="304" y="0" name="bottom"/>
  <anchor x="298" y="714" name="top"/>
  <anchor x="64" y="714" name="topleft"/>
  <outline>
    <contour>
      <point x="116" y="0" type="line"/>
      <point x="460" y="0" type="line"/>
      <point x="460" y="140" type="line"/>
      <point x="271" y="140" type="line"/>
      <point x="271" y="292" type="line"/>
      <point x="444" y="292" type="line"/>
      <point x="444" y="432" type="line"/>
      <point x="271" y="432" type="line"/>
      <point x="271" y="573" type="line"/>
      <point x="460" y="573" type="line"/>
      <point x="460" y="714" type="line"/>
      <point x="116" y="714" type="line"/>
    </contour>
    <component base="tonos" xOffset="-260"/>
  </outline>
</glyph>
<glyph name="Upsilontonos" format="2">
  <advance width="500"/>
  <unicode hex="038E"/>
  <anchor x="280" y="0" name="bottom"/>
  <anchor x="280" y="714" name="top"/>
  <outline>
    <contour>
      <point x="204" y="0" type="line"/>
      <point x="352" y="0" type="line"/>
      <point x="352" y="277" type="line"/>
      <point x="495" y="714" type="line"/>
      <point x="333" y="714" type="line"/>
      <point x="280" y="433" type="line"/>
      <point x="229" y="714" type="line"/>
      <point x="65" y="714" type="line"/>
      <point x="204" y="276" type="line"/>
    </contour>
    <component base="tonos" xOffset="-287"/>
  </outline>
</glyph>
<glyph name="Theta" format="2">
  <advance width="500"/>
  <unicode hex="0398"/>
  <anchor x="250" y="0" name="bottom"/>
  <anchor x="250" y="714" name="top"/>
  <anchor x="250" y="357" name="center"/>
  <anchor x="267" y="10" name="ogonek"/>
  <anchor x="20" y="714" name="topleft"/>
  <anchor x="500" y="714" name="topright"/>
  <outline>
    <contour>
      <point x="195" y="302" type="line"/>
      <point x="305" y="302" type="line"/>
      <point x="305" y="424" type="line"/>
      <point x="195" y="424" type="line"/>
    </contour>
    <component base="O"/>
  </outline>
</glyph>
<glyph name="afii10091" format="2">
  <advance width="500"/>
  <unicode hex="0449"/>
  <anchor x="250" y="-157" name="bottom"/>
  <anchor x="250" y="553" name="top"/>
  <outline>
    <contour>
      <point x="368" y="-200" type="line"/>
      <point x="500" y="-200" type="line"/>
      <point x="500" y="122" type="line"/>
      <point x="332" y="122" type="line"/>
      <point x="332" y="0" type="line"/>
      <point x="368" y="0" type="line"/>
    </contour>
    <component base="afii10090"/>
  </outline>
</glyph>
<glyph name="afii10092" format="2">
  <advance width="500"/>
  <unicode hex="044A"/>
  <anchor x="250" y="0" name="bottom"/>
  <anchor x="250" y="553" name="top"/>
  <outline>
    <contour>
      <point x="0" y="425" type="line"/>
      <point x="115" y="425" type="line"/>
      <point x="115" y="553" type="line"/>
      <point x="0" y="553" type="line"/>
    </contour>
    <component base="afii10094" xOffset="43"/>
  </outline>
</glyph>
<glyph name="afii10101" format="2">
  <advance width="500"/>
  <unicode hex="0454"/>
  <anchor x="250" y="0" name="bottom"/>
  <anchor x="250" y="553" name="top"/>
  <anchor x="480" y="553" name="topright"/>
  <outline>
    <contour>
      <point x="176" y="221" type="line"/>
      <point x="366" y="221" type="line"/>
      <point x="366" y="330" type="line"/>
      <point x="176" y="330" type="line"/>
    </contour>
    <component base="c"/>
  </outline>
</glyph>
<glyph name="uni0472" format="2">
  <advance width="500"/>
  <unicode hex="0472"/>
  <anchor x="250" y="0" name="bottom"/>
  <anchor x="250" y="714" name="top"/>
  <anchor x="250" y="357" name="center"/>
  <anchor x="267" y="10" name="ogonek"/>
  <anchor x="20" y="714" name="topleft"/>
  <anchor x="500" y="714" name="topright"/>
  <outline>
    <contour>
      <point x="91" y="291" type="line"/>
      <point x="419" y="291" type="line"/>
      <point x="419" y="425" type="line"/>
      <point x="91" y="425" type="line"/>
    </contour>
    <component base="O"/>
  </outline>
</glyph>
<glyph name="uni048B" format="2">
  <advance width="500"/>
  <unicode hex="048B"/>
  <anchor x="250" y="-203" name="bottom"/>
  <anchor x="250" y="775" name="top"/>
  <anchor x="480" y="0" name="bottomright"/>
  <outline>
    <contour>
      <point x="321" y="-203" type="line"/>
      <point x="459" y="-203" type="line"/>
      <point x="518" y="118" type="line"/>
      <point x="381" y="118" type="line"/>
      <point x="369" y="0" type="line"/>
      <point x="380" y="0" type="line"/>
    </contour>
    <component base="afii10074"/>
    <component base="breve"/>
  </outline>
</glyph>
<glyph name="uni048F" format="2">
  <advance width="500"/>
  <unicode hex="048F"/>
  <anchor x="250" y="-240" name="bottom"/>
  <anchor x="250" y="553" name="top"/>
  <anchor x="480" y="553" name="topright"/>
  <outline>
    <contour>
      <point x="325" y="-117" type="line"/>
      <point x="400" y="-92" type="line"/>
      <point x="282" y="258" type="line"/>
      <point x="207" y="233" type="line"/>
    </contour>
    <component base="p"/>
  </outline>
</glyph>
<glyph name="uni0497" format="2">
  <advance width="500"/>
  <unicode hex="0497"/>
  <anchor x="250" y="-206" name="bottom"/>
  <anchor x="250" y="553" name="top"/>
  <anchor x="480" y="0" name="bottomright"/>
  <outline>
    <contour>
      <point x="378" y="-203" type="line"/>
      <point x="503" y="-203" type="line"/>
      <point x="503" y="135" type="line"/>
      <point x="412" y="135" type="line"/>
      <point x="378" y="0" type="line"/>
    </contour>
    <component base="afii10072"/>
  </outline>
</glyph>
<glyph name="uni049B" format="2">
  <advance width="500"/>
  <unicode hex="049B"/>
  <anchor x="250" y="-201" name="bottom"/>
  <anchor x="250" y="553" name="top"/>
  <anchor x="480" y="0" name="bottomright"/>
  <outline>
    <contour>
      <point x="360" y="-203" type="line"/>
      <point x="497" y="-203" type="line"/>
      <point x="497" y="135" type="line"/>
      <point x="406" y="135" type="line"/>
      <point x="360" y="0" type="line"/>
    </contour>
    <component base="afii10076"/>
  </outline>
</glyph>
<glyph name="uni04AC" format="2">
  <advance width="500"/>
  <unicode hex="04AC"/>
  <anchor x="250" y="-222" name="bottom"/>
  <anchor x="250" y="714" name="top"/>
  <anchor x="250" y="357" name="center"/>
  <anchor x="480" y="714" name="topright"/>
  <outline>
    <contour>
      <point x="253" y="-222" type="line"/>
      <point x="418" y="-222" type="line"/>
      <point x="418" y="146" type="line"/>
      <point x="215" y="146" type="line"/>
      <point x="186" y="0" type="line"/>
      <point x="253" y="0" type="line"/>
    </contour>
    <component base="T"/>
  </outline>
</glyph>
<glyph name="uni04B1" format="2">
  <advance width="500"/>
  <unicode hex="04B1"/>
  <anchor x="250" y="-240" name="bottom"/>
  <anchor x="250" y="553" name="top"/>
  <outline>
    <contour>
      <point x="56" y="-121" type="line"/>
      <point x="438" y="-121" type="line"/>
      <point x="438" y="0" type="line"/>
      <point x="56" y="0" type="line"/>
    </contour>
    <component base="uni04AF"/>
  </outline>
</glyph>
<glyph name="uni04B6" format="2">
  <advance width="500"/>
  <unicode hex="04B6"/>
  <anchor x="250" y="-221" name="bottom"/>
  <anchor x="250" y="714" name="top"/>
  <anchor x="475" y="0" name="bottomright"/>
  <outline>
    <contour>
      <point x="359" y="-222" type="line"/>
      <point x="498" y="-222" type="line"/>
      <point x="498" y="146" type="line"/>
      <point x="375" y="146" type="line"/>
      <point x="338" y="0" type="line"/>
      <point x="359" y="0" type="line"/>
    </contour>
    <component base="afii10041" xOffset="-5"/>
  </outline>
</glyph>
<glyph name="uni04BE" format="2">
  <advance width="500"/>
  <unicode hex="04BE"/>
  <anchor x="335" y="-240" name="bottom"/>
  <anchor x="314" y="714" name="top"/>
  <outline>
    <contour>
      <point x="256" y="-216" type="line"/>
      <point x="404" y="-216" type="line"/>
      <point x="404" y="40" type="line"/>
      <point x="256" y="40" type="line"/>
    </contour>
    <component base="uni04BC"/>
  </outline>
</glyph>
<glyph name="uni04CD" format="2">
  <advance width="500"/>
  <unicode hex="04CD"/>
  <anchor x="250" y="-222" name="bottom"/>
  <anchor x="250" y="714" name="top"/>
  <anchor x="500" y="714" name="topright"/>
  <outline>
    <contour>
      <point x="295" y="-222" type="line"/>
      <point x="459" y="-222" type="line"/>
      <point x="510" y="135" type="line"/>
      <point x="395" y="135" type="line"/>
      <point x="395" y="0" type="line"/>
      <point x="372" y="0" type="line"/>
    </contour>
    <component base="M"/>
  </outline>
</glyph>
<glyph name="uni04F6" format="2">
  <advance width="500"/>
  <unicode hex="04F6"/>
  <anchor x="223" y="-240" name="bottom"/>
  <anchor x="250" y="714" name="top"/>
  <anchor x="480" y="0" name="bottomright"/>
  <outline>
    <contour>
      <point x="143" y="-222" type="line"/>
      <point x="308" y="-222" type="line"/>
      <point x="308" y="146" type="line"/>
      <point x="105" y="146" type="line"/>
      <point x="76" y="0" type="line"/>
      <point x="143" y="0" type="line"/>
    </contour>
    <component base="afii10020"/>
  </outline>
</glyph>
<glyph name="uni04F7" format="2">
  <advance width="500"/>
  <unicode hex="04F7"/>
  <anchor x="261" y="-240" name="bottom"/>
  <anchor x="276" y="553" name="top"/>
  <anchor x="480" y="0" name="bottomright"/>
  <outline>
    <contour>
      <point x="173" y="-203" type="line"/>
      <point x="330" y="-203" type="line"/>
      <point x="330" y="135" type="line"/>
      <point x="192" y="135" type="line"/>
      <point x="140" y="0" type="line"/>
      <point x="173" y="0" type="line"/>
    </contour>
    <component base="afii10068"/>
  </outline>
</glyph>
<glyph name="uni051F" format="2">
  <advance width="500"/>
  <unicode hex="051F"/>
  <anchor x="250" y="0" name="bottom"/>
  <anchor x="250" y="553" name="top"/>
  <anchor x="480" y="0" name="bottomright"/>
  <outline>
    <contour>
      <point x="416" y="328" type="line"/>
      <point x="464" y="417" type="line"/>
      <point x="254" y="537" type="line"/>
      <point x="203" y="448" type="line"/>
    </contour>
    <component base="afii10076"/>
  </outline>
</glyph>
<glyph name="uni0527" format="2">
  <advance width="500"/>
  <unicode hex="0527"/>
  <anchor x="250" y="-200" name="bottom"/>
  <anchor x="112" y="760" name="top"/>
  <anchor x="250" y="277" name="center"/>
  <anchor x="480" y="760" name="topright"/>
  <outline>
    <contour>
      <point x="358" y="-200" type="line"/>
      <point x="500" y="-200" type="line"/>
      <point x="500" y="122" type="line"/>
      <point x="322" y="122" type="line"/>
      <point x="322" y="0" type="line"/>
      <point x="358" y="0" type="line"/>
    </contour>
    <component base="h"/>
  </outline>
</glyph>
<glyph name="uni052A" format="2">
  <advance width="1000"/>
  <unicode hex="052A"/>
  <anchor x="500" y="-216" name="bottom"/>
  <anchor x="500" y="714" name="top"/>
  <anchor x="990" y="0" name="bottomright"/>
  <outline>
    <contour>
      <point x="349" y="305" type="line"/>
      <point x="620" y="305" type="line"/>
      <point x="620" y="436" type="line"/>
      <point x="349" y="436" type="line"/>
    </contour>
    <component base="afii10021"/>
    <component base="afii10028" xOffset="510"/>
  </outline>
</glyph>
<glyph name="uni052B" format="2">
  <advance width="1000"/>
  <unicode hex="052B"/>
  <anchor x="500" y="-200" name="bottom"/>
  <anchor x="500" y="553" name="top"/>
  <anchor x="980" y="0" name="bottomright"/>
  <outline>
    <contour>
      <point x="388" y="224" type="line"/>
      <point x="612" y="224" type="line"/>
      <point x="612" y="342" type="line"/>
      <point x="388" y="342" type="line"/>
    </contour>
    <component base="afii10069"/>
    <component base="afii10076" xOffset="500"/>
  </outline>
</glyph>
<glyph name="uni052E" format="2">
  <advance width="500"/>
  <unicode hex="052E"/>
  <anchor x="258" y="-216" name="bottom"/>
  <anchor x="303" y="714" name="top"/>
  <outline>
    <contour>
      <point x="382" y="-216" type="line"/>
      <point x="524" y="-216" type="line"/>
      <point x="524" y="143" type="line"/>
      <point x="372" y="143" type="line"/>
      <point x="350" y="0" type="line"/>
      <point x="382" y="0" type="line"/>
    </contour>
    <component base="afii10029"/>
  </outline>
</glyph>
<glyph name="uni052F" format="2">
  <advance width="500"/>
  <unicode hex="052F"/>
  <anchor x="269" y="-200" name="bottom"/>
  <anchor x="281" y="553" name="top"/>
  <outline>
    <contour>
      <point x="358" y="-200" type="line"/>
      <point x="500" y="-200" type="line"/>
      <point x="500" y="122" type="line"/>
      <point x="322" y="122" type="line"/>
      <point x="322" y="0" type="line"/>
      <point x="358" y="0" type="line"/>
    </contour>
    <component base="afii10077"/>
  </outline>
</glyph>
<glyph name="uni1D03" format="2">
  <advance width="500"/>
  <unicode hex="1D03"/>
  <anchor x="250" y="0" name="bottom"/>
  <anchor x="250" y="553" name="top"/>
  <outline>
    <contour>
      <point x="15" y="236" type="line"/>
      <point x="484" y="236" type="line"/>
      <point x="484" y="333" type="line"/>
      <point x="15" y="333" type="line"/>
    </contour>
    <component base="afii10067"/>
  </outline>
</glyph>
<glyph name="uni1D06" format="2">
  <advance width="500"/>
  <unicode hex="1D06"/>
  <anchor x="250" y="0" name="bottom"/>
  <anchor x="250" y="553" name="top"/>
  <outline>
    <contour>
      <point x="0" y="226" type="line"/>
      <point x="277" y="226" type="line"/>
      <point x="277" y="322" type="line"/>
      <point x="0" y="322" type="line"/>
    </contour>
    <component base="uni1D05"/>
  </outline>
</glyph>
<glyph name="uni1D0C" format="2">
  <advance width="500"/>
  <unicode hex="1D0C"/>
  <anchor x="275" y="0" name="bottom"/>
  <anchor x="163" y="553" name="top"/>
  <outline>
    <contour>
      <point x="61" y="153" type="line"/>
      <point x="355" y="364" type="line"/>
      <point x="291" y="446" type="line"/>
      <point x="-3" y="234" type="line"/>
    </contour>
    <component base="uni029F"/>
  </outline>
</glyph>
<glyph name="uni1D24" format="2">
  <advance width="550"/>
  <unicode hex="1D24"/>
  <anchor x="287" y="0" name="bottom"/>
  <anchor x="268" y="760" name="top"/>
  <outline>
    <contour>
      <point x="291" y="-8" type="curve" smooth="yes"/>
      <point x="360" y="-8"/>
      <point x="416" y="11"/>
      <point x="473" y="55" type="curve"/>
      <point x="417" y="182" type="line"/>
      <point x="383" y="152"/>
      <point x="342" y="136"/>
      <point x="308" y="136" type="curve" smooth="yes"/>
      <point x="262" y="136"/>
      <point x="230" y="161"/>
      <point x="230" y="199" type="curve" smooth="yes"/>
      <point x="230" y="255"/>
      <point x="267" y="291"/>
      <point x="361" y="317" type="curve"/>
      <point x="361" y="379" type="line"/>
      <point x="446" y="404"/>
      <point x="493" y="482"/>
      <point x="493" y="580" type="curve" smooth="yes"/>
      <point x="493" y="693"/>
      <point x="404" y="765"/>
      <point x="269" y="765" type="curve" smooth="yes"/>
      <point x="199" y="765"/>
      <point x="144" y="746"/>
      <point x="86" y="702" type="curve"/>
      <point x="143" y="575" type="line"/>
      <point x="177" y="605"/>
      <point x="216" y="621"/>
      <point x="252" y="621" type="curve" smooth="yes"/>
      <point x="298" y="621"/>
      <point x="329" y="596"/>
      <point x="329" y="558" type="curve" smooth="yes"/>
      <point x="329" y="503"/>
      <point x="293" y="466"/>
      <point x="199" y="440" type="curve"/>
      <point x="199" y="378" type="line"/>
      <point x="114" y="353"/>
      <point x="67" y="276"/>
      <point x="67" y="177" type="curve" smooth="yes"/>
      <point x="67" y="64"/>
      <point x="155" y="-8"/>
    </contour>
  </outline>
</glyph>
<glyph name="uni1D7A" format="2">
  <advance width="1000"/>
  <unicode hex="1D7A"/>
  <anchor x="304" y="0" name="bottom_1"/>
  <anchor x="750" y="0" name="bottom_2"/>
  <anchor x="206" y="287" name="center_1"/>
  <anchor x="750" y="277" name="center_2"/>
  <anchor x="238" y="682" name="top_1"/>
  <anchor x="612" y="760" name="top_2"/>
  <anchor x="480" y="682" name="topright_1"/>
  <anchor x="980" y="760" name="topright_2"/>
  <outline>
    <contour>
      <point x="211" y="-75" type="line"/>
      <point x="279" y="-75" type="line"/>
      <point x="818" y="760" type="line"/>
      <point x="750" y="760" type="line"/>
    </contour>
    <component base="t"/>
    <component base="h" xOffset="500"/>
  </outline>
</glyph>
<glyph name="uni1D7C" format="2">
  <advance width="500"/>
  <unicode hex="1D7C"/>
  <anchor x="313" y="0" name="bottom"/>
  <anchor x="233" y="553" name="top"/>
  <outline>
    <contour>
      <point x="36" y="270" type="line"/>
      <point x="441" y="270" type="line"/>
      <point x="441" y="386" type="line"/>
      <point x="36" y="386" type="line"/>
    </contour>
    <component base="iota"/>
  </outline>
</glyph>
<glyph name="uni1D7D" format="2">
  <advance width="500"/>
  <unicode hex="1D7D"/>
  <anchor x="268" y="-240" name="bottom"/>
  <anchor x="268" y="553" name="top"/>
  <anchor x="475" y="553" name="topright"/>
  <outline>
    <contour>
      <point x="0" y="221" type="line"/>
      <point x="500" y="221" type="line"/>
      <point x="500" y="331" type="line"/>
      <point x="0" y="331" type="line"/>
    </contour>
    <component base="p" xOffset="-5"/>
  </outline>
</glyph>
<glyph name="uni1D8C" format="2">
  <advance width="500"/>
  <unicode hex="1D8C"/>
  <anchor x="250" y="0" name="bottom"/>
  <anchor x="250" y="553" name="top"/>
  <anchor x="480" y="553" name="topright"/>
  <outline>
    <contour>
      <point x="283" y="0" type="line"/>
      <point x="415" y="0" type="line"/>
      <point x="415" y="135" type="line"/>
      <point x="283" y="135" type="line"/>
    </contour>
    <component base="v"/>
    <component base="cyrillicbighooklc" xOffset="98"/>
  </outline>
</glyph>
<glyph name="uni1D8F" format="2">
  <advance width="500"/>
  <unicode hex="1D8F"/>
  <anchor x="260" y="0" name="bottom"/>
  <anchor x="450" y="10" name="ogonek"/>
  <anchor x="264" y="553" name="top"/>
  <anchor x="496" y="553" name="topright"/>
  <outline>
    <contour>
      <point x="527" y="-230" type="curve" smooth="yes"/>
      <point x="555" y="-230"/>
      <point x="572" y="-226"/>
      <point x="591" y="-219" type="curve"/>
      <point x="591" y="-110" type="line"/>
      <point x="580" y="-115"/>
      <point x="569" y="-117"/>
      <point x="559" y="-117" type="curve" smooth="yes"/>
      <point x="529" y="-117"/>
      <point x="520" y="-98"/>
      <point x="520" y="-47" type="curve" smooth="yes"/>
      <point x="520" y="135" type="line"/>
      <point x="345" y="135" type="line"/>
      <point x="345" y="0" type="line"/>
      <point x="383" y="0" type="line"/>
      <point x="383" y="-65" type="line" smooth="yes"/>
      <point x="383" y="-189"/>
      <point x="433" y="-230"/>
    </contour>
    <component base="a"/>
  </outline>
</glyph>
<glyph name="uni1D90" format="2">
  <advance width="500"/>
  <unicode hex="1D90"/>
  <anchor x="250" y="0" name="bottom"/>
  <anchor x="250" y="553" name="top"/>
  <outline>
    <contour>
      <point x="502" y="-230" type="curve" smooth="yes"/>
      <point x="530" y="-230"/>
      <point x="547" y="-226"/>
      <point x="566" y="-219" type="curve"/>
      <point x="566" y="-110" type="line"/>
      <point x="555" y="-115"/>
      <point x="544" y="-117"/>
      <point x="534" y="-117" type="curve" smooth="yes"/>
      <point x="504" y="-117"/>
      <point x="495" y="-98"/>
      <point x="495" y="-47" type="curve" smooth="yes"/>
      <point x="495" y="121" type="line"/>
      <point x="358" y="10" type="line"/>
      <point x="358" y="-65" type="line" smooth="yes"/>
      <point x="358" y="-189"/>
      <point x="408" y="-230"/>
    </contour>
    <component base="uni0251"/>
  </outline>
</glyph>
<glyph name="longsdiagonalstroke" format="2">
  <advance width="500"/>
  <unicode hex="1E9C"/>
  <anchor x="229" y="0" name="bottom"/>
  <anchor x="250" y="765" name="top"/>
  <outline>
    <contour>
      <point x="94" y="300" type="line"/>
      <point x="404" y="421" type="line"/>
      <point x="360" y="526" type="line"/>
      <point x="50" y="405" type="line"/>
    </contour>
    <component base="longs"/>
  </outline>
</glyph>
<glyph name="uni1F38" format="2">
  <advance width="500"/>
  <unicode hex="1F38"/>
  <anchor x="330" y="0" name="bottom"/>
  <anchor x="330" y="714" name="top"/>
  <outline>
    <contour>
      <point x="162" y="0" type="line"/>
      <point x="492" y="0" type="line"/>
      <point x="492" y="115" type="line"/>
      <point x="405" y="130" type="line"/>
      <point x="405" y="584" type="line"/>
      <point x="492" y="599" type="line"/>
      <point x="492" y="714" type="line"/>
      <point x="162" y="714" type="line"/>
      <point x="162" y="599" type="line"/>
      <point x="253" y="584" type="line"/>
      <point x="253" y="130" type="line"/>
      <point x="162" y="115" type="line"/>
    </contour>
    <component base="uni1FBD" xOffset="-186" yOffset="-50"/>
  </outline>
</glyph>
<glyph name="uni1F3E" format="2">
  <advance width="500"/>
  <unicode hex="1F3E"/>
  <anchor x="365" y="0" name="bottom"/>
  <anchor x="365" y="714" name="top"/>
  <outline>
    <contour>
      <point x="249" y="0" type="line"/>
      <point x="479" y="0" type="line"/>
      <point x="479" y="115" type="line"/>
      <point x="440" y="130" type="line"/>
      <point x="440" y="584" type="line"/>
      <point x="479" y="599" type="line"/>
      <point x="479" y="714" type="line"/>
      <point x="249" y="714" type="line"/>
      <point x="249" y="599" type="line"/>
      <point x="288" y="584" type="line"/>
      <point x="288" y="130" type="line"/>
      <point x="249" y="115" type="line"/>
    </contour>
    <component base="uni1FCF" xOffset="-118" yOffset="-50"/>
  </outline>
</glyph>
<glyph name="uni1FEA" format="2">
  <advance width="500"/>
  <unicode hex="1FEA"/>
  <anchor x="278" y="0" name="bottom"/>
  <anchor x="278" y="714" name="top"/>
  <outline>
    <contour>
      <point x="204" y="0" type="line"/>
      <point x="352" y="0" type="line"/>
      <point x="352" y="277" type="line"/>
      <point x="495" y="714" type="line"/>
      <point x="333" y="714" type="line"/>
      <point x="280" y="433" type="line"/>
      <point x="229" y="714" type="line"/>
      <point x="65" y="714" type="line"/>
      <point x="204" y="276" type="line"/>
    </contour>
    <component base="uni1FEF" xOffset="-215" yOffset="-60"/>
  </outline>
</glyph>
<glyph name="equalsuperior" format="2">
  <advance width="500"/>
  <unicode hex="207C"/>
  <outline>
    <contour>
      <point x="91" y="476" type="line"/>
      <point x="409" y="476" type="line"/>
      <point x="409" y="560" type="line"/>
      <point x="91" y="560" type="line"/>
    </contour>
    <contour>
      <point x="91" y="334" type="line"/>
      <point x="409" y="334" type="line"/>
      <point x="409" y="418" type="line" smooth="yes"/>
      <point x="91" y="418" type="line"/>
    </contour>
  </outline>
</glyph>
<glyph name="uni20A5" format="2">
  <advance width="500"/>
  <unicode hex="20A5"/>
  <anchor x="259" y="0" name="bottom"/>
  <anchor x="259" y="553" name="top"/>
  <anchor x="499" y="553" name="topright"/>
  <outline>
    <contour>
      <point x="65" y="-110" type="line"/>
      <point x="168" y="-110" type="line"/>
      <point x="427" y="666" type="line"/>
      <point x="325" y="666" type="line"/>
    </contour>
    <component base="m"/>
  </outline>
</glyph>
<glyph name="uni20B2" format="2">
  <advance width="500"/>
  <unicode hex="20B2"/>
  <anchor x="290" y="0" name="bottom"/>
  <anchor x="287" y="714" name="top"/>
  <anchor x="480" y="714" name="topright"/>
  <outline>
    <contour>
      <point x="222" y="-57" type="line"/>
      <point x="308" y="-57" type="line"/>
      <point x="308" y="759" type="line"/>
      <point x="222" y="759" type="line"/>
    </contour>
    <component base="G"/>
  </outline>
</glyph>
<glyph name="uni20B3" format="2">
  <advance width="500"/>
  <unicode hex="20B3"/>
  <anchor x="250" y="714" name="bottom"/>
  <anchor x="250" y="0" name="top"/>
  <anchor x="20" y="0" name="topright"/>
  <outline>
    <contour>
      <point x="2" y="342" type="line"/>
      <point x="498" y="342" type="line"/>
      <point x="498" y="419" type="line"/>
      <point x="2" y="419" type="line"/>
    </contour>
    <contour>
      <point x="2" y="196" type="line"/>
      <point x="498" y="196" type="line"/>
      <point x="498" y="273" type="line"/>
      <point x="2" y="273" type="line"/>
    </contour>
    <component base="V" xScale="-1" yScale="-1" xOffset="500" yOffset="714"/>
  </outline>
</glyph>
<glyph name="uni20B5" format="2">
  <advance width="500"/>
  <unicode hex="20B5"/>
  <anchor x="306" y="0" name="bottom"/>
  <anchor x="298" y="714" name="top"/>
  <anchor x="480" y="714" name="topright"/>
  <outline>
    <contour>
      <point x="279" y="-77" type="line"/>
      <point x="365" y="-77" type="line"/>
      <point x="365" y="759" type="line"/>
      <point x="279" y="759" type="line"/>
    </contour>
    <component base="C"/>
  </outline>
</glyph>
<glyph name="planckconstantovertwopi" format="2">
  <advance width="500"/>
  <unicode hex="210F"/>
  <outline>
    <contour>
      <point x="57" y="581" type="line"/>
      <point x="369" y="581" type="line"/>
      <point x="391" y="684" type="line"/>
      <point x="79" y="684" type="line"/>
    </contour>
    <component base="planckconstant"/>
  </outline>
</glyph>
<glyph name="notequal" format="2">
  <advance width="500"/>
  <unicode hex="2260"/>
  <outline>
    <contour>
      <point x="219" y="61" type="line"/>
      <point x="413" y="610" type="line"/>
      <point x="296" y="649" type="line"/>
      <point x="103" y="99" type="line"/>
    </contour>
    <component base="equal" xOffset="-1"/>
  </outline>
</glyph>
<glyph name="APLquadequal" format="2">
  <advance width="500"/>
  <unicode hex="2338"/>
  <outline>
    <contour>
      <point x="140" y="214" type="line"/>
      <point x="360" y="214" type="line"/>
      <point x="360" y="308" type="line"/>
      <point x="140" y="308" type="line"/>
    </contour>
    <contour>
      <point x="140" y="406" type="line"/>
      <point x="360" y="406" type="line"/>
      <point x="360" y="500" type="line"/>
      <point x="140" y="500" type="line"/>
    </contour>
    <component base="APLquad" xOffset="1"/>
  </outline>
</glyph>
<glyph name="APLquaddiamond" format="2">
  <advance width="500"/>
  <unicode hex="233A"/>
  <outline>
    <contour>
      <point x="249" y="238" type="line"/>
      <point x="367" y="356" type="line"/>
      <point x="249" y="475" type="line"/>
      <point x="130" y="356" type="line"/>
    </contour>
    <contour>
      <point x="249" y="305" type="line"/>
      <point x="197" y="356" type="line"/>
      <point x="249" y="408" type="line"/>
      <point x="300" y="356" type="line"/>
    </contour>
    <component base="APLquad"/>
  </outline>
</glyph>
<glyph name="APLquadgreater-than" format="2">
  <advance width="500"/>
  <unicode hex="2344"/>
  <outline>
    <contour>
      <point x="80" y="136" type="line"/>
      <point x="428" y="312" type="line"/>
      <point x="428" y="402" type="line"/>
      <point x="80" y="578" type="line"/>
      <point x="80" y="472" type="line"/>
      <point x="311" y="357" type="line"/>
      <point x="80" y="242" type="line"/>
    </contour>
    <component base="APLquad"/>
  </outline>
</glyph>
<glyph name="APLquadrightarrow" format="2">
  <advance width="500"/>
  <unicode hex="2348"/>
  <outline>
    <contour>
      <point x="217" y="204" type="line"/>
      <point x="367" y="357" type="line"/>
      <point x="217" y="510" type="line"/>
      <point x="234" y="407" type="line"/>
      <point x="63" y="407" type="line"/>
      <point x="63" y="307" type="line"/>
      <point x="234" y="307" type="line"/>
    </contour>
    <component base="APLquad"/>
  </outline>
</glyph>
<glyph name="APLquaddowncaret" format="2">
  <advance width="500"/>
  <unicode hex="234C"/>
  <outline>
    <contour>
      <point x="205" y="130" type="line"/>
      <point x="295" y="130" type="line"/>
      <point x="425" y="406" type="line"/>
      <point x="425" y="587" type="line"/>
      <point x="249" y="247" type="line"/>
      <point x="75" y="587" type="line"/>
      <point x="75" y="406" type="line"/>
    </contour>
    <component base="APLquad"/>
  </outline>
</glyph>
<glyph name="APLquaddelta" format="2">
  <advance width="500"/>
  <unicode hex="234D"/>
  <outline>
    <contour>
      <point x="111" y="140" type="line"/>
      <point x="389" y="140" type="line"/>
      <point x="389" y="181" type="line"/>
      <point x="267" y="560" type="line"/>
      <point x="232" y="560" type="line"/>
      <point x="111" y="181" type="line"/>
    </contour>
    <contour>
      <point x="192" y="213" type="line"/>
      <point x="250" y="419" type="line"/>
      <point x="308" y="213" type="line"/>
    </contour>
    <component base="APLquad"/>
  </outline>
</glyph>
<glyph name="APLquaduparrow" format="2">
  <advance width="500"/>
  <unicode hex="2350"/>
  <outline>
    <contour>
      <point x="205" y="-16" type="line"/>
      <point x="298" y="-16" type="line"/>
      <point x="298" y="557" type="line"/>
      <point x="382" y="538" type="line"/>
      <point x="251" y="711" type="line"/>
      <point x="120" y="538" type="line"/>
      <point x="205" y="557" type="line"/>
    </contour>
    <component base="APLquad"/>
  </outline>
</glyph>
<glyph name="APLquadupcaret" format="2">
  <advance width="500"/>
  <unicode hex="2353"/>
  <outline>
    <contour>
      <point x="76" y="127" type="line"/>
      <point x="250" y="467" type="line"/>
      <point x="426" y="127" type="line"/>
      <point x="426" y="308" type="line"/>
      <point x="296" y="584" type="line"/>
      <point x="206" y="584" type="line"/>
      <point x="76" y="308" type="line"/>
    </contour>
    <component base="APLquad"/>
  </outline>
</glyph>
<glyph name="APLquaddownarrow" format="2">
  <advance width="500"/>
  <unicode hex="2357"/>
  <outline>
    <contour>
      <point x="251" y="3" type="line"/>
      <point x="382" y="176" type="line"/>
      <point x="298" y="157" type="line"/>
      <point x="298" y="730" type="line"/>
      <point x="205" y="730" type="line"/>
      <point x="205" y="157" type="line"/>
      <point x="120" y="176" type="line"/>
    </contour>
    <component base="APLquad"/>
  </outline>
</glyph>
<glyph name="APLquotequad" format="2">
  <advance width="500"/>
  <unicode hex="235E"/>
  <outline>
    <contour>
      <point x="210" y="406" type="line"/>
      <point x="289" y="406" type="line"/>
      <point x="308" y="685" type="line"/>
      <point x="191" y="685" type="line"/>
    </contour>
    <component base="APLquad"/>
  </outline>
</glyph>
<glyph name="APLquadcolon" format="2">
  <advance width="500"/>
  <unicode hex="2360"/>
  <outline>
    <contour>
      <point x="250" y="435" type="curve" smooth="yes"/>
      <point x="287" y="435"/>
      <point x="319" y="468"/>
      <point x="319" y="511" type="curve" smooth="yes"/>
      <point x="319" y="553"/>
      <point x="287" y="587"/>
      <point x="250" y="587" type="curve" smooth="yes"/>
      <point x="214" y="587"/>
      <point x="182" y="553"/>
      <point x="182" y="511" type="curve" smooth="yes"/>
      <point x="182" y="468"/>
      <point x="213" y="435"/>
    </contour>
    <contour>
      <point x="250" y="127" type="curve" smooth="yes"/>
      <point x="286" y="127"/>
      <point x="319" y="161"/>
      <point x="319" y="202" type="curve" smooth="yes"/>
      <point x="319" y="244"/>
      <point x="287" y="279"/>
      <point x="250" y="279" type="curve" smooth="yes"/>
      <point x="214" y="279"/>
      <point x="182" y="244"/>
      <point x="182" y="202" type="curve" smooth="yes"/>
      <point x="182" y="161"/>
      <point x="214" y="127"/>
    </contour>
    <component base="APLquad"/>
  </outline>
</glyph>
<glyph name="APLquadnotequal" format="2">
  <advance width="500"/>
  <unicode hex="236F"/>
  <outline>
    <contour>
      <point x="225" y="133" type="line"/>
      <point x="332" y="557" type="line"/>
      <point x="268" y="588" type="line"/>
      <point x="161" y="163" type="line"/>
    </contour>
    <contour>
      <point x="144" y="234" type="line"/>
      <point x="356" y="234" type="line"/>
      <point x="356" y="317" type="line"/>
      <point x="144" y="317" type="line"/>
    </contour>
    <contour>
      <point x="144" y="398" type="line"/>
      <point x="356" y="398" type="line"/>
      <point x="356" y="481" type="line"/>
      <point x="144" y="481" type="line"/>
    </contour>
    <component base="APLquad" xOffset="1"/>
  </outline>
</glyph>
<glyph name="horizontalscanline-7" format="2">
  <advance width="500"/>
  <unicode hex="23BC"/>
  <outline>
    <contour>
      <point x="-16" y="201" type="line"/>
      <point x="516" y="201" type="line"/>
      <point x="516" y="304" type="line"/>
      <point x="-16" y="304" type="line"/>
    </contour>
  </outline>
</glyph>
<glyph name="uni2596" format="2">
  <advance width="500"/>
  <unicode hex="2596"/>
  <outline>
    <contour>
      <point x="250" y="-240" type="line"/>
      <point x="250" y="366" type="line"/>
      <point x="0" y="366" type="line"/>
      <point x="0" y="-240" type="line"/>
    </contour>
  </outline>
</glyph>
<glyph name="filledrect" format="2">
  <advance width="500"/>
  <unicode hex="25AC"/>
  <outline>
    <contour>
      <point x="0" y="63" type="line"/>
      <point x="500" y="63" type="line"/>
      <point x="500" y="364" type="line"/>
      <point x="0" y="364" type="line"/>
    </contour>
  </outline>
</glyph>
<glyph name="uni2C60" format="2">
  <advance width="500"/>
  <unicode hex="2C60"/>
  <anchor x="300" y="0" name="bottom"/>
  <anchor x="162" y="714" name="top"/>
  <anchor x="280" y="357" name="center"/>
  <anchor x="407" y="714" name="topright"/>
  <outline>
    <contour>
      <point x="30" y="392" type="line"/>
      <point x="405" y="392" type="line"/>
      <point x="405" y="479" type="line"/>
      <point x="30" y="479" type="line"/>
    </contour>
    <contour>
      <point x="30" y="246" type="line"/>
      <point x="405" y="246" type="line"/>
      <point x="405" y="333" type="line"/>
      <point x="30" y="333" type="line"/>
    </contour>
    <component base="L" xOffset="30"/>
  </outline>
</glyph>
<glyph name="uni2C63" format="2">
  <advance width="500"/>
  <unicode hex="2C63"/>
  <anchor x="250" y="0" name="bottom"/>
  <anchor x="250" y="714" name="top"/>
  <anchor x="500" y="714" name="topright"/>
  <outline>
    <contour>
      <point x="0" y="431" type="line"/>
      <point x="264" y="431" type="line"/>
      <point x="264" y="527" type="line"/>
      <point x="0" y="527" type="line"/>
    </contour>
    <component base="P"/>
  </outline>
</glyph>
<glyph name="uni2C66" format="2">
  <advance width="500"/>
  <unicode hex="2C66"/>
  <anchor x="250" y="-208" name="bottom"/>
  <anchor x="250" y="760" name="top"/>
  <anchor x="206" y="287" name="center"/>
  <anchor x="480" y="682" name="topright"/>
  <outline>
    <contour>
      <point x="84" y="-208" type="line"/>
      <point x="171" y="-208" type="line"/>
      <point x="423" y="760" type="line"/>
      <point x="336" y="760" type="line"/>
    </contour>
    <component base="t"/>
  </outline>
</glyph>
<glyph name="uni2C69" format="2">
  <advance width="500"/>
  <unicode hex="2C69"/>
  <anchor x="250" y="-189" name="bottom"/>
  <anchor x="251" y="714" name="top"/>
  <anchor x="480" y="714" name="topright"/>
  <outline>
    <contour>
      <point x="353" y="-223" type="line"/>
      <point x="491" y="-223" type="line"/>
      <point x="491" y="140" type="line"/>
      <point x="391" y="140" type="line"/>
      <point x="353" y="19" type="line"/>
    </contour>
    <component base="K"/>
  </outline>
</glyph>
<glyph name="uniA681" format="2">
  <advance width="500"/>
  <unicode hex="A681"/>
  <anchor x="250" y="-200" name="bottom"/>
  <anchor x="270" y="553" name="top"/>
  <outline>
    <contour>
      <point x="129" y="466" type="line"/>
      <point x="254" y="466" type="line"/>
      <point x="254" y="739" type="line"/>
      <point x="129" y="739" type="line"/>
    </contour>
    <component base="afii10069"/>
  </outline>
</glyph>
<glyph name="uniA684" format="2">
  <advance width="1000"/>
  <unicode hex="A684"/>
  <anchor x="250" y="0" name="bottom_1"/>
  <anchor x="745" y="0" name="bottom_2"/>
  <anchor x="980" y="0" name="bottomright"/>
  <anchor x="241" y="714" name="top_1"/>
  <anchor x="750" y="714" name="top_2"/>
  <outline>
    <contour>
      <point x="167" y="307" type="line"/>
      <point x="567" y="307" type="line"/>
      <point x="567" y="437" type="line"/>
      <point x="167" y="437" type="line"/>
    </contour>
    <component base="afii10025"/>
    <component base="afii10028" xOffset="500"/>
  </outline>
</glyph>
<glyph name="uniA742" format="2">
  <advance width="500"/>
  <unicode hex="A742"/>
  <anchor x="251" y="0" name="bottom"/>
  <anchor x="250" y="714" name="top"/>
  <anchor x="480" y="714" name="topright"/>
  <outline>
    <contour>
      <point x="265" y="53" type="line"/>
      <point x="493" y="205" type="line"/>
      <point x="425" y="304" type="line"/>
      <point x="199" y="152" type="line"/>
    </contour>
    <component base="K"/>
  </outline>
</glyph>
<glyph name="uniA743" format="2">
  <advance width="500"/>
  <unicode hex="A743"/>
  <anchor x="250" y="0" name="bottom"/>
  <anchor x="280" y="760" name="top"/>
  <anchor x="480" y="760" name="topright"/>
  <outline>
    <contour>
      <point x="251" y="21" type="line"/>
      <point x="464" y="141" type="line"/>
      <point x="413" y="230" type="line"/>
      <point x="203" y="110" type="line"/>
    </contour>
    <component base="k"/>
  </outline>
</glyph>
<glyph name="uniA744" format="2">
  <advance width="500"/>
  <unicode hex="A744"/>
  <anchor x="251" y="0" name="bottom"/>
  <anchor x="250" y="714" name="top"/>
  <anchor x="480" y="714" name="topright"/>
  <outline>
    <contour>
      <point x="265" y="53" type="line"/>
      <point x="493" y="205" type="line"/>
      <point x="425" y="304" type="line"/>
      <point x="199" y="152" type="line"/>
    </contour>
    <component base="uniA740"/>
  </outline>
</glyph>
<glyph name="uniA748" format="2">
  <advance width="500"/>
  <unicode hex="A748"/>
  <anchor x="299" y="0" name="bottom"/>
  <anchor x="280" y="357" name="center"/>
  <anchor x="161" y="714" name="top"/>
  <anchor x="407" y="714" name="topright"/>
  <outline>
    <contour>
      <point x="10" y="516" type="line"/>
      <point x="326" y="516" type="line"/>
      <point x="326" y="632" type="line"/>
      <point x="10" y="632" type="line"/>
    </contour>
    <component base="L" xOffset="30"/>
  </outline>
</glyph>
<glyph name="uniA749" format="2">
  <advance width="500"/>
  <unicode hex="A749"/>
  <anchor x="256" y="0" name="bottom"/>
  <anchor x="256" y="393" name="center"/>
  <anchor x="250" y="760" name="top"/>
  <anchor x="423" y="760" name="topright"/>
  <outline>
    <contour>
      <point x="78" y="445" type="line"/>
      <point x="423" y="445" type="line"/>
      <point x="423" y="563" type="line"/>
      <point x="78" y="563" type="line"/>
    </contour>
    <component base="l"/>
  </outline>
</glyph>
<glyph name="uniA74B" format="2">
  <advance width="500"/>
  <unicode hex="A74B"/>
  <anchor x="250" y="0" name="bottom"/>
  <anchor x="250" y="277" name="center"/>
  <anchor x="253" y="10" name="ogonek"/>
  <anchor x="250" y="553" name="top"/>
  <anchor x="499" y="553" name="topright"/>
  <outline>
    <contour>
      <point x="0" y="219" type="line"/>
      <point x="500" y="219" type="line"/>
      <point x="500" y="335" type="line"/>
      <point x="0" y="335" type="line"/>
    </contour>
    <component base="o"/>
  </outline>
</glyph>
<glyph name="uniA757" format="2">
  <advance width="500"/>
  <unicode hex="A757"/>
  <anchor x="230" y="-240" name="bottom"/>
  <anchor x="230" y="553" name="top"/>
  <anchor x="480" y="553" name="topright"/>
  <outline>
    <contour>
      <point x="143" y="-177" type="line"/>
      <point x="500" y="-177" type="line"/>
      <point x="500" y="-61" type="line"/>
      <point x="143" y="-61" type="line"/>
    </contour>
    <component base="q"/>
  </outline>
</glyph>
<glyph name="uniA75F" format="2">
  <advance width="500"/>
  <unicode hex="A75F"/>
  <anchor x="250" y="0" name="bottom"/>
  <anchor x="250" y="553" name="top"/>
  <anchor x="480" y="553" name="topright"/>
  <outline>
    <contour>
      <point x="86" y="-93" type="line"/>
      <point x="133" y="-93" type="line"/>
      <point x="276" y="639" type="line"/>
      <point x="226" y="639" type="line"/>
    </contour>
    <component base="v"/>
  </outline>
</glyph>
<glyph name="uniA772" format="2">
  <advance width="500"/>
  <unicode hex="A772"/>
  <anchor x="281" y="0" name="bottom"/>
  <anchor x="281" y="393" name="center"/>
  <anchor x="275" y="760" name="top"/>
  <anchor x="448" y="760" name="topright"/>
  <outline>
    <contour>
      <point x="10" y="-157" type="line"/>
      <point x="109" y="-157" type="line"/>
      <point x="178" y="298" type="line"/>
      <point x="80" y="298" type="line"/>
    </contour>
    <contour>
      <point x="10" y="0" type="line"/>
      <point x="271" y="0" type="line"/>
      <point x="271" y="135" type="line"/>
      <point x="10" y="135" type="line"/>
    </contour>
    <component base="l" xOffset="25"/>
  </outline>
</glyph>
<glyph name="uniA779" format="2">
  <advance width="500"/>
  <unicode hex="A779"/>
  <anchor x="250" y="0" name="bottom"/>
  <anchor x="250" y="357" name="center"/>
  <anchor x="267" y="10" name="ogonek"/>
  <anchor x="250" y="714" name="top"/>
  <anchor x="20" y="714" name="topleft"/>
  <anchor x="500" y="714" name="topright"/>
  <outline>
    <contour>
      <point x="0" y="582" type="line"/>
      <point x="254" y="582" type="line"/>
      <point x="254" y="725" type="line"/>
      <point x="0" y="725" type="line"/>
    </contour>
    <component base="O"/>
  </outline>
</glyph>
<glyph name="uniA77B" format="2">
  <advance width="500"/>
  <unicode hex="A77B"/>
  <outline>
    <contour>
      <point x="154" y="215" type="line"/>
      <point x="443" y="215" type="line"/>
      <point x="443" y="355" type="line"/>
      <point x="154" y="355" type="line"/>
    </contour>
    <component base="uniA784"/>
  </outline>
</glyph>
<glyph name="uniA791" format="2">
  <advance width="500"/>
  <unicode hex="A791"/>
  <anchor x="255" y="0" name="bottom"/>
  <anchor x="260" y="553" name="top"/>
  <anchor x="501" y="553" name="topright"/>
  <outline>
    <contour>
      <point x="373" y="-203" type="line"/>
      <point x="530" y="-203" type="line"/>
      <point x="530" y="135" type="line"/>
      <point x="359" y="135" type="line"/>
      <point x="359" y="0" type="line"/>
      <point x="373" y="0" type="line"/>
    </contour>
    <component base="n"/>
  </outline>
</glyph>
<glyph name="uniA792" format="2">
  <advance width="500"/>
  <unicode hex="A792"/>
  <anchor x="306" y="0" name="bottom"/>
  <anchor x="298" y="714" name="top"/>
  <anchor x="480" y="714" name="topright"/>
  <outline>
    <contour>
      <point x="0" y="294" type="line"/>
      <point x="383" y="294" type="line"/>
      <point x="383" y="419" type="line"/>
      <point x="0" y="419" type="line"/>
    </contour>
    <component base="C"/>
  </outline>
</glyph>
<glyph name="uniA793" format="2">
  <advance width="500"/>
  <unicode hex="A793"/>
  <anchor x="323" y="0" name="bottom"/>
  <anchor x="314" y="553" name="top"/>
  <anchor x="504" y="553" name="topright"/>
  <outline>
    <contour>
      <point x="10" y="221" type="line"/>
      <point x="377" y="221" type="line"/>
      <point x="377" y="337" type="line"/>
      <point x="10" y="337" type="line"/>
    </contour>
    <component base="c" xOffset="24"/>
  </outline>
</glyph>
<glyph name="uniA799" format="2">
  <advance width="500"/>
  <unicode hex="A799"/>
  <anchor x="250" y="0" name="bottom"/>
  <anchor x="308" y="766" name="top"/>
  <anchor x="500" y="766" name="topright"/>
  <outline>
    <contour>
      <point x="72" y="228" type="line"/>
      <point x="382" y="228" type="line"/>
      <point x="382" y="336" type="line"/>
      <point x="72" y="336" type="line"/>
    </contour>
    <component base="f"/>
  </outline>
</glyph>
<glyph name="uniA7A0" format="2">
  <advance width="500"/>
  <unicode hex="A7A0"/>
  <anchor x="290" y="0" name="bottom"/>
  <anchor x="287" y="714" name="top"/>
  <anchor x="480" y="714" name="topright"/>
  <outline>
    <contour>
      <point x="0" y="338" type="line"/>
      <point x="500" y="471" type="line"/>
      <point x="500" y="577" type="line"/>
      <point x="0" y="444" type="line"/>
    </contour>
    <component base="G"/>
  </outline>
</glyph>
<glyph name="uniA7A2" format="2">
  <advance width="500"/>
  <unicode hex="A7A2"/>
  <anchor x="251" y="0" name="bottom"/>
  <anchor x="250" y="714" name="top"/>
  <anchor x="480" y="714" name="topright"/>
  <outline>
    <contour>
      <point x="206" y="299" type="line"/>
      <point x="500" y="377" type="line"/>
      <point x="500" y="483" type="line"/>
      <point x="197" y="403" type="line"/>
    </contour>
    <contour>
      <point x="0" y="244" type="line"/>
      <point x="173" y="290" type="line"/>
      <point x="166" y="395" type="line"/>
      <point x="0" y="350" type="line"/>
    </contour>
    <component base="K"/>
  </outline>
</glyph>
<glyph name="uniA7A4" format="2">
  <advance width="500"/>
  <unicode hex="A7A4"/>
  <anchor x="250" y="0" name="bottom"/>
  <anchor x="255" y="714" name="top"/>
  <anchor x="500" y="714" name="topright"/>
  <outline>
    <contour>
      <point x="0" y="244" type="line"/>
      <point x="500" y="377" type="line"/>
      <point x="500" y="483" type="line"/>
      <point x="0" y="350" type="line"/>
    </contour>
    <component base="N"/>
  </outline>
</glyph>
<glyph name="uniA7A6" format="2">
  <advance width="500"/>
  <unicode hex="A7A6"/>
  <anchor x="266" y="0" name="bottom"/>
  <anchor x="250" y="714" name="top"/>
  <anchor x="480" y="714" name="topright"/>
  <outline>
    <contour>
      <point x="0" y="372" type="line"/>
      <point x="500" y="505" type="line"/>
      <point x="500" y="611" type="line"/>
      <point x="0" y="478" type="line"/>
    </contour>
    <component base="R"/>
  </outline>
</glyph>
<glyph name="uniA7AE" format="2">
  <advance width="499"/>
  <unicode hex="A7AE"/>
  <anchor x="251" y="0" name="bottom"/>
  <anchor x="251" y="714" name="top"/>
  <outline>
    <contour>
      <point x="482" y="714" type="line"/>
      <point x="17" y="714" type="line"/>
      <point x="17" y="623" type="line"/>
      <point x="173" y="596" type="line"/>
      <point x="173" y="118" type="line"/>
      <point x="17" y="91" type="line"/>
      <point x="17" y="0" type="line"/>
      <point x="482" y="0" type="line"/>
      <point x="482" y="91" type="line"/>
      <point x="325" y="118" type="line"/>
      <point x="325" y="596" type="line"/>
      <point x="482" y="623" type="line"/>
    </contour>
  </outline>
</glyph>
<glyph name="uniA7B8" format="2">
  <advance width="500"/>
  <unicode hex="A7B8"/>
  <anchor x="250" y="0" name="bottom"/>
  <anchor x="450" y="10" name="ogonek"/>
  <anchor x="250" y="714" name="top"/>
  <anchor x="480" y="714" name="topright"/>
  <outline>
    <contour>
      <point x="82" y="-60" type="line"/>
      <point x="541" y="712" type="line"/>
      <point x="464" y="756" type="line"/>
      <point x="5" y="-16" type="line"/>
    </contour>
    <component base="U"/>
  </outline>
</glyph>
<glyph name="uniA7B9" format="2">
  <advance width="500"/>
  <unicode hex="A7B9"/>
  <anchor x="250" y="0" name="bottom"/>
  <anchor x="450" y="10" name="ogonek"/>
  <anchor x="250" y="553" name="top"/>
  <anchor x="480" y="553" name="topright"/>
  <outline>
    <contour>
      <point x="93" y="-71" type="line"/>
      <point x="497" y="549" type="line"/>
      <point x="422" y="598" type="line"/>
      <point x="17" y="-22" type="line"/>
    </contour>
    <component base="u"/>
  </outline>
</glyph>
<glyph name="uniA7C4" format="2">
  <advance width="500"/>
  <unicode hex="A7C4"/>
  <anchor x="306" y="0" name="bottom"/>
  <anchor x="298" y="714" name="top"/>
  <anchor x="480" y="714" name="topright"/>
  <outline>
    <contour>
      <point x="319" y="48" type="line"/>
      <point x="319" y="-25" type="line" smooth="yes"/>
      <point x="319" y="-89"/>
      <point x="281" y="-104"/>
      <point x="242" y="-104" type="curve" smooth="yes"/>
      <point x="224" y="-104"/>
      <point x="213" y="-101"/>
      <point x="191" y="-95" type="curve"/>
      <point x="191" y="-229" type="line"/>
      <point x="214" y="-236"/>
      <point x="255" y="-240"/>
      <point x="284" y="-240" type="curve" smooth="yes"/>
      <point x="414" y="-240"/>
      <point x="461" y="-144"/>
      <point x="461" y="-40" type="curve" smooth="yes"/>
      <point x="461" y="148" type="line"/>
    </contour>
    <component base="C"/>
  </outline>
</glyph>
<glyph name="uniA7F7" format="2">
  <advance width="500"/>
  <unicode hex="A7F7"/>
  <outline>
    <contour>
      <point x="20" y="82" type="line"/>
      <point x="135" y="82" type="line"/>
      <point x="150" y="199" type="line"/>
      <point x="350" y="199" type="line"/>
      <point x="365" y="82" type="line"/>
      <point x="480" y="82" type="line"/>
      <point x="480" y="472" type="line"/>
      <point x="365" y="472" type="line"/>
      <point x="350" y="351" type="line"/>
      <point x="150" y="351" type="line"/>
      <point x="135" y="472" type="line"/>
      <point x="20" y="472" type="line"/>
    </contour>
  </outline>
</glyph>
<glyph name="uniA7FB" format="2">
  <advance width="500"/>
  <unicode hex="A7FB"/>
  <outline>
    <contour>
      <point x="302" y="0" type="line"/>
      <point x="457" y="0" type="line"/>
      <point x="457" y="714" type="line"/>
      <point x="42" y="714" type="line"/>
      <point x="42" y="574" type="line"/>
      <point x="302" y="574" type="line"/>
      <point x="302" y="405" type="line"/>
      <point x="59" y="405" type="line"/>
      <point x="59" y="265" type="line"/>
      <point x="302" y="265" type="line"/>
    </contour>
  </outline>
</glyph>
<glyph name="uniAB44" format="2">
  <advance width="500"/>
  <unicode hex="AB44"/>
  <outline>
    <contour>
      <point x="275" y="-83" type="line"/>
      <point x="458" y="589" type="line"/>
      <point x="409" y="602" type="line"/>
      <point x="227" y="-69" type="line"/>
    </contour>
    <component base="uniAB43"/>
  </outline>
</glyph>
<glyph name="uniAB67" format="2">
  <advance width="500"/>
  <unicode hex="AB67"/>
  <anchor x="250" y="0" name="bottom"/>
  <anchor x="250" y="663" name="top"/>
  <outline>
    <contour>
      <point x="309" y="-240" type="curve" smooth="yes"/>
      <point x="336" y="-240"/>
      <point x="364" y="-234"/>
      <point x="380" y="-227" type="curve"/>
      <point x="380" y="-121" type="line"/>
      <point x="371" y="-124"/>
      <point x="361" y="-126"/>
      <point x="351" y="-126" type="curve" smooth="yes"/>
      <point x="333" y="-126"/>
      <point x="320" y="-117"/>
      <point x="320" y="-88" type="curve" smooth="yes"/>
      <point x="320" y="31" type="line"/>
      <point x="196" y="74" type="line"/>
      <point x="196" y="-127" type="line" smooth="yes"/>
      <point x="196" y="-202"/>
      <point x="235" y="-240"/>
    </contour>
    <component base="tslig"/>
  </outline>
</glyph>
<glyph name="f_f_i" format="2">
  <advance width="1000"/>
  <unicode hex="FB03"/>
  <anchor x="866" y="0" name="bottom _3"/>
  <anchor x="153" y="0" name="bottom_1"/>
  <anchor x="508" y="0" name="bottom_2"/>
  <anchor x="334" y="0" name="caret_1"/>
  <anchor x="680" y="0" name="caret_2"/>
  <anchor x="153" y="773" name="top_1"/>
  <anchor x="507" y="773" name="top_2"/>
  <anchor x="866" y="773" name="top_3"/>
  <outline>
    <contour>
      <point x="67" y="0" type="line"/>
      <point x="236" y="0" type="line"/>
      <point x="236" y="413" type="line"/>
      <point x="422" y="413" type="line"/>
      <point x="422" y="0" type="line"/>
      <point x="591" y="0" type="line"/>
      <point x="591" y="413" type="line"/>
      <point x="777" y="413" type="line"/>
      <point x="777" y="0" type="line"/>
      <point x="947" y="0" type="line"/>
      <point x="947" y="553" type="line"/>
      <point x="591" y="553" type="line"/>
      <point x="591" y="560" type="line" smooth="yes"/>
      <point x="591" y="604"/>
      <point x="618" y="622"/>
      <point x="655" y="622" type="curve" smooth="yes"/>
      <point x="674" y="622"/>
      <point x="693" y="617"/>
      <point x="715" y="608" type="curve"/>
      <point x="755" y="743" type="line"/>
      <point x="715" y="759"/>
      <point x="678" y="765"/>
      <point x="637" y="765" type="curve" smooth="yes"/>
      <point x="498" y="765"/>
      <point x="422" y="694"/>
      <point x="422" y="581" type="curve" smooth="yes"/>
      <point x="422" y="553" type="line"/>
      <point x="236" y="553" type="line"/>
      <point x="236" y="560" type="line" smooth="yes"/>
      <point x="236" y="604"/>
      <point x="260" y="622"/>
      <point x="306" y="622" type="curve" smooth="yes"/>
      <point x="330" y="622"/>
      <point x="361" y="617"/>
      <point x="387" y="608" type="curve"/>
      <point x="427" y="743" type="line"/>
      <point x="387" y="757"/>
      <point x="340" y="765"/>
      <point x="290" y="765" type="curve" smooth="yes"/>
      <point x="143" y="765"/>
      <point x="67" y="694"/>
      <point x="67" y="581" type="curve" smooth="yes"/>
      <point x="67" y="552" type="line"/>
      <point x="6" y="544" type="line"/>
      <point x="6" y="413" type="line"/>
      <point x="67" y="413" type="line"/>
    </contour>
    <contour>
      <point x="864" y="601" type="curve" smooth="yes"/>
      <point x="933" y="601"/>
      <point x="963" y="635"/>
      <point x="963" y="690" type="curve" smooth="yes"/>
      <point x="963" y="746"/>
      <point x="932" y="777"/>
      <point x="864" y="777" type="curve" smooth="yes"/>
      <point x="795" y="777"/>
      <point x="767" y="745"/>
      <point x="767" y="690" type="curve" smooth="yes"/>
      <point x="767" y="632"/>
      <point x="798" y="601"/>
    </contour>
  </outline>
</glyph>
<glyph name="f_f_l" format="2">
  <advance width="1000"/>
  <unicode hex="FB04"/>
  <anchor x="866" y="0" name="bottom _3"/>
  <anchor x="153" y="0" name="bottom_1"/>
  <anchor x="508" y="0" name="bottom_2"/>
  <anchor x="332" y="0" name="caret_1"/>
  <anchor x="687" y="0" name="caret_2"/>
  <anchor x="153" y="773" name="top_1"/>
  <anchor x="507" y="773" name="top_2"/>
  <anchor x="866" y="773" name="top_3"/>
  <outline>
    <contour>
      <point x="67" y="0" type="line"/>
      <point x="237" y="0" type="line"/>
      <point x="237" y="413" type="line"/>
      <point x="422" y="413" type="line"/>
      <point x="422" y="0" type="line"/>
      <point x="592" y="0" type="line"/>
      <point x="592" y="413" type="line"/>
      <point x="722" y="413" type="line"/>
      <point x="722" y="553" type="line"/>
      <point x="592" y="553" type="line"/>
      <point x="592" y="567" type="line" smooth="yes"/>
      <point x="592" y="604"/>
      <point x="616" y="622"/>
      <point x="655" y="622" type="curve" smooth="yes"/>
      <point x="675" y="622"/>
      <point x="689" y="618"/>
      <point x="715" y="608" type="curve"/>
      <point x="755" y="743" type="line"/>
      <point x="715" y="759"/>
      <point x="678" y="765"/>
      <point x="637" y="765" type="curve" smooth="yes"/>
      <point x="498" y="765"/>
      <point x="422" y="694"/>
      <point x="422" y="581" type="curve" smooth="yes"/>
      <point x="422" y="553" type="line"/>
      <point x="237" y="553" type="line"/>
      <point x="237" y="567" type="line" smooth="yes"/>
      <point x="237" y="604"/>
      <point x="261" y="622"/>
      <point x="306" y="622" type="curve" smooth="yes"/>
      <point x="330" y="622"/>
      <point x="361" y="617"/>
      <point x="387" y="608" type="curve"/>
      <point x="427" y="743" type="line"/>
      <point x="387" y="757"/>
      <point x="340" y="765"/>
      <point x="290" y="765" type="curve" smooth="yes"/>
      <point x="143" y="765"/>
      <point x="67" y="694"/>
      <point x="67" y="581" type="curve" smooth="yes"/>
      <point x="67" y="552" type="line"/>
      <point x="6" y="544" type="line"/>
      <point x="6" y="413" type="line"/>
      <point x="67" y="413" type="line"/>
    </contour>
    <contour>
      <point x="777" y="0" type="line"/>
      <point x="947" y="0" type="line"/>
      <point x="947" y="760" type="line"/>
      <point x="777" y="760" type="line"/>
    </contour>
  </outline>
</glyph>
<glyph name="longs_t" format="2">
  <advance width="500"/>
  <unicode hex="FB05"/>
  <anchor x="126" y="0" name="bottom"/>
  <anchor x="109" y="0" name="bottom_1"/>
  <anchor x="343" y="0" name="bottom_2"/>
  <anchor x="230" y="0" name="caret_1"/>
  <anchor x="332" y="287" name="center"/>
  <anchor x="223" y="765" name="top"/>
  <anchor x="109" y="765" name="top_1"/>
  <anchor x="343" y="765" name="top_2"/>
  <anchor x="499" y="682" name="topright"/>
  <outline>
    <contour>
      <point x="394" y="-10" type="curve" smooth="yes"/>
      <point x="426" y="-10"/>
      <point x="458" y="-3"/>
      <point x="478" y="5" type="curve"/>
      <point x="478" y="144" type="line"/>
      <point x="466" y="138"/>
      <point x="452" y="135"/>
      <point x="442" y="135" type="curve" smooth="yes"/>
      <point x="424" y="135"/>
      <point x="411" y="145"/>
      <point x="411" y="187" type="curve" smooth="yes"/>
      <point x="411" y="413" type="line"/>
      <point x="478" y="413" type="line"/>
      <point x="478" y="553" type="line"/>
      <point x="411" y="553" type="line"/>
      <point x="411" y="677" type="line"/>
      <point x="387" y="717"/>
      <point x="330" y="765"/>
      <point x="230" y="765" type="curve" smooth="yes"/>
      <point x="114" y="765"/>
      <point x="35" y="699"/>
      <point x="35" y="542" type="curve" smooth="yes"/>
      <point x="35" y="0" type="line"/>
      <point x="183" y="0" type="line"/>
      <point x="183" y="538" type="line" smooth="yes"/>
      <point x="183" y="594"/>
      <point x="194" y="624"/>
      <point x="227" y="624" type="curve" smooth="yes"/>
      <point x="244" y="624"/>
      <point x="258" y="616"/>
      <point x="263" y="608" type="curve"/>
      <point x="263" y="532" type="line"/>
      <point x="219" y="518" type="line"/>
      <point x="219" y="413" type="line"/>
      <point x="263" y="413" type="line"/>
      <point x="263" y="159" type="line" smooth="yes"/>
      <point x="263" y="53"/>
      <point x="299" y="-10"/>
    </contour>
  </outline>
</glyph>
<glyph name="s_t" format="2">
  <advance width="1000"/>
  <unicode hex="FB06"/>
  <anchor x="264" y="0" name="bottom"/>
  <anchor x="250" y="0" name="bottom_1"/>
  <anchor x="710" y="0" name="bottom_2"/>
  <anchor x="540" y="0" name="caret_1"/>
  <anchor x="706" y="287" name="center"/>
  <anchor x="264" y="553" name="top"/>
  <anchor x="250" y="553" name="top_1"/>
  <anchor x="710" y="765" name="top_2"/>
  <anchor x="980" y="682" name="topright"/>
  <outline>
    <contour>
      <point x="820" y="-10" type="curve" smooth="yes"/>
      <point x="873" y="-10"/>
      <point x="939" y="0"/>
      <point x="985" y="18" type="curve"/>
      <point x="985" y="153" type="line"/>
      <point x="938" y="137"/>
      <point x="898" y="132"/>
      <point x="869" y="132" type="curve" smooth="yes"/>
      <point x="829" y="132"/>
      <point x="785" y="142"/>
      <point x="785" y="219" type="curve" smooth="yes"/>
      <point x="785" y="418" type="line"/>
      <point x="981" y="418" type="line"/>
      <point x="981" y="553" type="line"/>
      <point x="786" y="553" type="line"/>
      <point x="786" y="684" type="line"/>
      <point x="738" y="725"/>
      <point x="636" y="765"/>
      <point x="515" y="765" type="curve" smooth="yes"/>
      <point x="354" y="765"/>
      <point x="281" y="693"/>
      <point x="281" y="606" type="curve" smooth="yes"/>
      <point x="281" y="573"/>
      <point x="292" y="540"/>
      <point x="307" y="520" type="curve"/>
      <point x="460" y="520" type="line"/>
      <point x="427" y="537"/>
      <point x="415" y="551"/>
      <point x="415" y="571" type="curve" smooth="yes"/>
      <point x="415" y="599"/>
      <point x="439" y="624"/>
      <point x="511" y="624" type="curve" smooth="yes"/>
      <point x="565" y="624"/>
      <point x="609" y="610"/>
      <point x="630" y="592" type="curve"/>
      <point x="630" y="552" type="line"/>
      <point x="510" y="492" type="line"/>
      <point x="510" y="418" type="line"/>
      <point x="630" y="418" type="line"/>
      <point x="630" y="190" type="line" smooth="yes"/>
      <point x="630" y="53"/>
      <point x="707" y="-10"/>
    </contour>
    <contour>
      <point x="227" y="-10" type="curve" smooth="yes"/>
      <point x="384" y="-10"/>
      <point x="456" y="52"/>
      <point x="456" y="169" type="curve" smooth="yes"/>
      <point x="456" y="252"/>
      <point x="419" y="284"/>
      <point x="319" y="334" type="curve" smooth="yes"/>
      <point x="255" y="366"/>
      <point x="221" y="376"/>
      <point x="221" y="400" type="curve" smooth="yes"/>
      <point x="221" y="417"/>
      <point x="237" y="431"/>
      <point x="282" y="431" type="curve" smooth="yes"/>
      <point x="319" y="431"/>
      <point x="360" y="421"/>
      <point x="412" y="396" type="curve"/>
      <point x="460" y="520" type="line"/>
      <point x="396" y="550"/>
      <point x="336" y="563"/>
      <point x="272" y="563" type="curve" smooth="yes"/>
      <point x="131" y="563"/>
      <point x="60" y="503"/>
      <point x="60" y="400" type="curve" smooth="yes"/>
      <point x="60" y="329"/>
      <point x="107" y="271"/>
      <point x="190" y="234" type="curve" smooth="yes"/>
      <point x="275" y="196"/>
      <point x="300" y="184"/>
      <point x="300" y="159" type="curve" smooth="yes"/>
      <point x="300" y="139"/>
      <point x="288" y="125"/>
      <point x="233" y="125" type="curve" smooth="yes"/>
      <point x="179" y="125"/>
      <point x="107" y="141"/>
      <point x="60" y="166" type="curve"/>
      <point x="60" y="22" type="line"/>
      <point x="109" y="1"/>
      <point x="162" y="-10"/>
    </contour>
  </outline>
</glyph>
<glyph name="aogonek.loclNAV" format="2">
  <advance width="500"/>
  <anchor x="260" y="0" name="bottom"/>
  <anchor x="450" y="10" name="ogonek"/>
  <anchor x="264" y="553" name="top"/>
  <anchor x="496" y="553" name="topright"/>
  <outline>
    <contour>
      <point x="286" y="-240" type="curve" smooth="yes"/>
      <point x="315" y="-240"/>
      <point x="339" y="-233"/>
      <point x="354" y="-226" type="curve"/>
      <point x="354" y="-136" type="line"/>
      <point x="344" y="-141"/>
      <point x="334" y="-145"/>
      <point x="317" y="-145" type="curve" smooth="yes"/>
      <point x="290" y="-145"/>
      <point x="275" y="-127"/>
      <point x="275" y="-82" type="curve" smooth="yes"/>
      <point x="275" y="-25"/>
      <point x="294" y="17"/>
      <point x="320" y="73" type="curve"/>
      <point x="246" y="89" type="line"/>
      <point x="205" y="41"/>
      <point x="166" y="-38"/>
      <point x="166" y="-116" type="curve" smooth="yes"/>
      <point x="166" y="-200"/>
      <point x="206" y="-240"/>
    </contour>
    <component base="a"/>
  </outline>
</glyph>
<glyph name="lslash.sc" format="2">
  <advance width="500"/>
  <anchor x="302" y="0" name="bottom"/>
  <anchor x="190" y="591" name="top"/>
  <anchor x="192" y="296" name="center"/>
  <anchor x="350" y="591" name="topright"/>
  <outline>
    <contour>
      <point x="63" y="187" type="line"/>
      <point x="378" y="401" type="line"/>
      <point x="309" y="498" type="line"/>
      <point x="-2" y="289" type="line"/>
    </contour>
    <component base="l.sc" xOffset="30"/>
  </outline>
</glyph>
<glyph name="tbar.sc" format="2">
  <advance width="500"/>
  <anchor x="250" y="0" name="bottom"/>
  <anchor x="250" y="591" name="top"/>
  <anchor x="250" y="296" name="center"/>
  <anchor x="480" y="591" name="topright"/>
  <outline>
    <contour>
      <point x="96" y="184" type="line"/>
      <point x="404" y="184" type="line"/>
      <point x="404" y="301" type="line"/>
      <point x="96" y="301" type="line"/>
    </contour>
    <component base="t.sc"/>
  </outline>
</glyph>
